<?xml version="1.0" standalone="no"?>
<!DOCTYPE svg PUBLIC "-//W3C//DTD SVG 20010904//EN"
 "http://www.w3.org/TR/2001/REC-SVG-20010904/DTD/svg10.dtd">
<svg version="1.0" xmlns="http://www.w3.org/2000/svg"
 width="512.000000pt" height="512.000000pt" viewBox="0 0 512.000000 512.000000"
 preserveAspectRatio="xMidYMid meet">

<g transform="translate(0.000000,512.000000) scale(0.100000,-0.100000)"
fill="#000000" stroke="none">
<path d="M2487 4950 c-89 -23 -122 -52 -594 -524 -535 -534 -527 -524 -527
-666 0 -60 5 -86 25 -130 55 -117 160 -184 289 -184 124 0 159 22 376 235
l184 182 0 -611 0 -612 -342 0 c-189 0 -383 -5 -433 -11 -513 -63 -916 -470
-975 -985 -7 -66 -10 -290 -8 -669 l3 -570 26 -55 c96 -202 357 -249 513 -94
21 22 51 64 65 94 l26 55 5 610 c5 593 6 612 26 667 56 147 185 263 337 304
40 10 135 14 404 14 l352 0 3 -798 3 -797 26 -55 c96 -202 357 -249 513 -94
21 22 51 64 65 94 l26 55 3 798 3 797 352 0 c370 0 403 -3 495 -48 115 -56
209 -164 254 -292 9 -25 14 -203 18 -645 l5 -610 26 -55 c96 -202 357 -249
513 -94 21 22 51 64 65 94 l26 55 3 570 c2 379 -1 603 -8 669 -59 515 -462
922 -975 985 -50 6 -244 11 -432 11 l-343 0 0 612 0 611 184 -182 c217 -213
252 -235 376 -235 129 0 234 67 289 184 20 44 25 70 25 130 0 142 8 132 -527
667 -405 405 -480 476 -528 498 -63 28 -155 39 -212 25z m138 -169 c27 -13
191 -170 497 -477 402 -405 458 -464 468 -501 31 -120 -73 -224 -192 -193 -37
10 -79 48 -303 271 -245 244 -263 259 -297 259 -28 0 -42 -6 -57 -26 -21 -26
-21 -33 -21 -806 l0 -779 25 -24 24 -25 388 0 c214 0 428 -5 478 -11 347 -41
650 -276 775 -602 63 -162 63 -156 67 -812 l4 -600 -23 -45 c-25 -48 -88 -90
-138 -90 -49 0 -113 42 -137 90 l-23 44 0 576 c0 462 -3 587 -15 635 -50 211
-208 387 -417 463 l-73 27 -442 3 -443 3 -25 -25 -25 -25 0 -828 0 -829 -22
-44 c-25 -48 -89 -90 -138 -90 -49 0 -113 42 -137 90 l-23 44 0 829 0 828 -25
25 -25 25 -443 -3 -442 -3 -73 -27 c-185 -67 -333 -215 -400 -400 l-27 -73 -5
-610 c-5 -589 -6 -611 -25 -645 -22 -38 -93 -80 -135 -80 -49 0 -113 42 -138
90 l-22 44 0 546 c0 582 5 672 47 805 90 287 315 520 593 617 140 48 173 51
638 57 l444 6 19 24 c18 22 19 50 19 801 0 771 0 778 -21 804 -15 20 -29 26
-57 26 -34 0 -52 -15 -297 -259 -224 -223 -266 -261 -302 -271 -87 -22 -170
25 -193 111 -24 90 -33 79 468 583 455 456 500 496 562 496 14 0 43 -9 65 -19z"/>
</g>
</svg>
